<svg width="24" height="24" viewBox="0 0 24 24" fill="none" xmlns="http://www.w3.org/2000/svg">
<g clip-path="url(#clip0_47_3137)" filter="url(#filter0_d_47_3137)">
<path fill-rule="evenodd" clip-rule="evenodd" d="M14.442 10.442C14.5349 10.3491 14.6452 10.2753 14.7666 10.225C14.888 10.1746 15.0181 10.1487 15.1495 10.1487C15.2809 10.1487 15.411 10.1746 15.5324 10.225C15.6538 10.2753 15.7641 10.3491 15.857 10.442L19.707 14.292C19.8946 14.4795 20.0001 14.7339 20.0002 14.9992C20.0003 15.2644 19.895 15.5189 19.7075 15.7065C19.52 15.8942 19.2656 15.9996 19.0004 15.9997C18.7351 15.9998 18.4806 15.8945 18.293 15.707L14.443 11.857C14.35 11.7642 14.2763 11.6539 14.2259 11.5325C14.1756 11.4111 14.1497 11.2809 14.1497 11.1495C14.1497 11.0181 14.1756 10.888 14.2259 10.7666C14.2763 10.6452 14.35 10.5349 14.443 10.442H14.442Z" fill="#86869E"/>
<path fill-rule="evenodd" clip-rule="evenodd" d="M10.5 12C11.2223 12 11.9375 11.8577 12.6048 11.5813C13.272 11.3049 13.8784 10.8998 14.3891 10.3891C14.8998 9.87837 15.3049 9.27205 15.5813 8.60476C15.8577 7.93747 16 7.22227 16 6.5C16 5.77773 15.8577 5.06253 15.5813 4.39524C15.3049 3.72795 14.8998 3.12163 14.3891 2.61091C13.8784 2.10019 13.272 1.69506 12.6048 1.41866C11.9375 1.14226 11.2223 1 10.5 1C9.04131 1 7.64236 1.57946 6.61091 2.61091C5.57946 3.64236 5 5.04131 5 6.5C5 7.95869 5.57946 9.35764 6.61091 10.3891C7.64236 11.4205 9.04131 12 10.5 12ZM17 6.5C17 8.22391 16.3152 9.87721 15.0962 11.0962C13.8772 12.3152 12.2239 13 10.5 13C8.77609 13 7.12279 12.3152 5.90381 11.0962C4.68482 9.87721 4 8.22391 4 6.5C4 4.77609 4.68482 3.12279 5.90381 1.90381C7.12279 0.684819 8.77609 0 10.5 0C12.2239 0 13.8772 0.684819 15.0962 1.90381C16.3152 3.12279 17 4.77609 17 6.5Z" fill="#86869E"/>
</g>
<defs>
<filter id="filter0_d_47_3137" x="0" y="0" width="24" height="24" filterUnits="userSpaceOnUse" color-interpolation-filters="sRGB">
<feFlood flood-opacity="0" result="BackgroundImageFix"/>
<feColorMatrix in="SourceAlpha" type="matrix" values="0 0 0 0 0 0 0 0 0 0 0 0 0 0 0 0 0 0 127 0" result="hardAlpha"/>
<feOffset dy="4"/>
<feGaussianBlur stdDeviation="2"/>
<feComposite in2="hardAlpha" operator="out"/>
<feColorMatrix type="matrix" values="0 0 0 0 0 0 0 0 0 0 0 0 0 0 0 0 0 0 0.25 0"/>
<feBlend mode="normal" in2="BackgroundImageFix" result="effect1_dropShadow_47_3137"/>
<feBlend mode="normal" in="SourceGraphic" in2="effect1_dropShadow_47_3137" result="shape"/>
</filter>
<clipPath id="clip0_47_3137">
<rect width="16" height="16" fill="white" transform="translate(4)"/>
</clipPath>
</defs>
</svg>
